<svg id="close" xmlns="http://www.w3.org/2000/svg" width="475.2" height="475.2" viewBox="0 0 475.2 475.2">
  <g id="Groupe_134" data-name="Groupe 134">
    <g id="Groupe_133" data-name="Groupe 133">
      <path id="Tracé_727" data-name="Tracé 727" d="M405.6,69.6a237.588,237.588,0,1,0-336,336,237.588,237.588,0,1,0,336-336ZM386.5,386.5a210.519,210.519,0,0,1-297.8,0C6.6,304.4,6.6,170.8,88.7,88.7a210.519,210.519,0,0,1,297.8,0C468.6,170.8,468.6,304.4,386.5,386.5Z" fill="#dbdbdb"/>
      <path id="Tracé_728" data-name="Tracé 728" d="M342.3,132.9a13.46,13.46,0,0,0-19.1,0l-85.6,85.6L152,132.9A13.506,13.506,0,1,0,132.9,152l85.6,85.6-85.6,85.6a13.55,13.55,0,0,0,9.5,23.1,13.173,13.173,0,0,0,9.5-4l85.6-85.6,85.6,85.6a13.588,13.588,0,0,0,9.5,4,13.01,13.01,0,0,0,9.5-4,13.46,13.46,0,0,0,0-19.1l-85.4-85.6L342.3,152A13.46,13.46,0,0,0,342.3,132.9Z" fill="#dbdbdb"/>
    </g>
  </g>
</svg>
